<?xml version="1.0" standalone="no"?><!DOCTYPE svg PUBLIC "-//W3C//DTD SVG 1.1//EN" "http://www.w3.org/Graphics/SVG/1.1/DTD/svg11.dtd"><svg t="1500691679438" class="icon" style="" viewBox="0 0 1039 1024" version="1.1" xmlns="http://www.w3.org/2000/svg" p-id="4455" xmlns:xlink="http://www.w3.org/1999/xlink" width="202.9296875" height="200"><defs><style type="text/css"></style></defs><path d="M1030.59418 481.744274 823.75256 274.901647c-10.138614-10.138614-26.579119-10.138614-36.720754 0l-41.812216 41.810202c-10.137607 10.138614-10.137607 26.583147 0 36.721761l91.240476 91.240476L420.577509 444.674085c-14.336854 0-25.959806 11.622952-25.959806 25.958799l0 59.135872c0 14.340882 11.622952 25.964841 25.959806 25.964841l415.682161 0-91.239469 91.240476c-10.137607 10.1366-10.137607 26.581133 0 36.720754l41.81423 41.812216c10.1366 10.137607 26.581133 10.137607 36.720754 0l165.224765-165.224765c0-0.006042 0.004028-0.006042 0.004028-0.006042l41.816244-41.81423C1040.734808 508.321379 1040.734808 491.882887 1030.59418 481.744274L1030.59418 481.744274zM674.252314 0 114.975035 0c-43.015597 0-77.891502 34.875905-77.891502 77.891502l0 844.623672c0 43.022646 34.875905 77.892509 77.891502 77.892509L674.252314 1000.407683c43.016604 0 77.892509-34.869863 77.892509-77.892509L752.144823 812.925902c0-14.337861-11.623959-25.965848-25.965848-25.965848L669.902015 786.960054c-14.336854 0-25.965848 11.627987-25.965848 25.965848l0 41.688353c-0.283978 21.258059-17.601592 38.413544-38.932156 38.413544l-421.858176 0c-21.504777 0-38.942227-17.436442-38.942227-38.949276l0-708.655676c0-21.505784 17.431407-38.944241 38.942227-38.944241l421.858176 0c21.336606 0 38.648179 17.149443 38.932156 38.414551l0 42.917917c0 14.341889 11.628994 25.965848 25.965848 25.965848l56.27696 0c14.341889 0 25.965848-11.623959 25.965848-25.965848L752.144823 77.891502C752.144823 34.875905 717.268918 0 674.252314 0L674.252314 0z" p-id="4456" fill="#515151"></path></svg>