<?xml version="1.0" standalone="no"?><!DOCTYPE svg PUBLIC "-//W3C//DTD SVG 1.1//EN" "http://www.w3.org/Graphics/SVG/1.1/DTD/svg11.dtd"><svg t="1500972271374" class="icon" style="" viewBox="0 0 1024 1024" version="1.1" xmlns="http://www.w3.org/2000/svg" p-id="2611" xmlns:xlink="http://www.w3.org/1999/xlink" width="36" height="36"><defs><style type="text/css"></style></defs><path d="M190.879863 127.153982 832.933895 127.153982c34.827203 0 66.557882 14.284331 89.532129 37.262672l0.088004 0.088004c22.978341 22.991644 37.261649 54.6906 37.261649 89.548502l0 571.541071c0 34.842553-14.283308 66.540486-37.261649 89.533153l-0.088004 0.103354c-22.974247 22.976294-54.704926 37.246299-89.532129 37.246299L190.879863 952.477037c-34.842553 0-66.541509-14.270005-89.534176-37.246299l-0.085958-0.103354c-22.978341-22.992667-37.262672-54.6906-37.262672-89.533153L63.997058 254.052137c0-34.930557 14.270005-66.658166 37.262672-89.636506C124.235001 141.423987 155.965679 127.153982 190.879863 127.153982L190.879863 127.153982zM638.218168 595.237773l99.906407 0 0 0c4.319375 0 8.604982-1.651616 11.881608-4.925173 6.576789-6.562463 6.576789-17.225313 0-23.787776L538.542005 355.060645l193.643302 0c13.935384 0 25.236777-11.299347 25.236777-25.236777 0-13.923104-11.301394-25.223474-25.236777-25.223474L291.626405 304.600393c-13.936407 0-25.222451 11.30037-25.222451 25.223474 0 13.93743 11.286044 25.236777 25.222451 25.236777l193.629999 0L273.794271 566.523801c-3.057639 3.041266-4.941546 7.257288-4.941546 11.893888 0 9.286504 7.535627 16.820084 16.836457 16.820084l99.892081 0 0 193.685257c0 9.302877 7.531534 16.835434 16.821107 16.835434l219.011062 0c9.273201 0 16.805758-7.532557 16.805758-16.835434L638.219191 595.237773 638.218168 595.237773zM604.579023 772.118296 604.579023 578.417689c0-9.287527 7.532557-16.821107 16.833387-16.821107l76.118632 0-185.617511-185.616488L326.282716 561.597605l76.118632 0c9.28548 0 16.821107 7.532557 16.821107 16.821107L419.222455 772.118296 604.579023 772.118296 604.579023 772.118296zM832.933895 177.629583 190.879863 177.629583c-20.977777 0-40.089044 8.603959-53.952796 22.454408-13.849426 13.865799-22.454408 32.975019-22.454408 53.968146l0 571.541071c0 21.020756 8.575306 40.144302 22.411429 53.995775 13.866822 13.8351 32.973996 22.427802 53.996798 22.427802L832.933895 902.016785c21.00643 0 40.132022-8.592702 53.981449-22.427802 13.847379-13.850449 22.425755-32.975019 22.425755-53.995775L909.341099 254.052137c0-21.037129-8.578376-40.145325-22.425755-54.011124C873.065917 186.206936 853.940324 177.629583 832.933895 177.629583z" p-id="2612"></path></svg>